<?xml version="1.0" encoding="utf-8"?>
<!-- Generator: Adobe Illustrator 26.0.3, SVG Export Plug-In . SVG Version: 6.00 Build 0)  -->
<svg version="1.1" id="Слой_1" xmlns="http://www.w3.org/2000/svg" xmlns:xlink="http://www.w3.org/1999/xlink" x="0px" y="0px"
	 viewBox="0 0 1163.8 1000" style="enable-background:new 0 0 1163.8 1000;" xml:space="preserve">
<style type="text/css">
	.st0{fill:#FFFFFF;}
	.st1{fill:none;stroke:#FFFFFF;stroke-width:10.2454;stroke-miterlimit:10;}
	.st2{clip-path:url(#SVGID_00000039119027917340283680000015777948056646491268_);}
	.st3{fill:none;stroke:#010101;stroke-width:6.1455;stroke-linecap:round;stroke-linejoin:round;}
	.st4{fill:#010101;}
	.st5{fill:#FFFFFF;stroke:#010101;stroke-width:6.1455;stroke-linecap:round;stroke-linejoin:round;}
	.st6{fill:none;stroke:#010101;stroke-width:10.2454;stroke-miterlimit:10;}
</style>
<g>
	<polygon class="st0" points="765,500 859.9,344 670.2,344 581.9,198.7 493.5,344 303.9,344 398.7,500 303.9,656 493.5,656 
		581.9,801.3 670.2,656 859.9,656 	"/>
	<polygon class="st1" points="488.9,664.2 289.3,664.2 389.1,500 289.3,335.8 488.9,335.8 581.9,182.9 674.8,335.8 874.5,335.8 
		774.7,500 874.5,664.2 674.8,664.2 581.9,817.1 	"/>
	<g>
		<g>
			<defs>
				<polygon id="SVGID_1_" points="398.7,500 493.5,656 670.2,656 765,500 670.2,344 493.5,344 				"/>
			</defs>
			<clipPath id="SVGID_00000016794944807832958880000003491417664140967578_">
				<use xlink:href="#SVGID_1_"  style="overflow:visible;"/>
			</clipPath>
			<g style="clip-path:url(#SVGID_00000016794944807832958880000003491417664140967578_);">
				<line class="st3" x1="377.9" y1="417.5" x2="787" y2="417.5"/>
				<line class="st3" x1="646.7" y1="582.8" x2="787" y2="582.8"/>
				<line class="st3" x1="377.9" y1="582.8" x2="521.2" y2="582.8"/>
				<line class="st3" x1="377.9" y1="500.1" x2="787" y2="500.1"/>
				<path class="st4" d="M473.6,505.2c-1.1-1.9-2.5-3.8-4.2-5.3l2.2-3.4c1.4-2.2-1.6-4-3.4-2.7c-1.4,1.2-2.7,2.4-3.7,3.9
					c-0.4-0.9-0.5-1.8-0.6-2.7c-0.2-2-2.8-3.1-4-1.1c-0.9,1.5-1.6,3-2.4,4.5c0,0,0,0,0-0.1l-5-7.5c-1.5-2.3-5.2-0.2-3.7,2.2
					c1.2,2,2.6,4.1,3.8,6c-1.5,1.2-2.9,2.3-4.3,3.6c-2,1.9,1.1,5,3,3.1c1.2-1.1,2.4-2,3.5-2.9l0.8,1.2c0.8,1.2,3,1.6,3.7,0
					c0.5-1.2,1.2-2.2,1.8-3.4c0.4,0.9,0.9,1.7,1.4,2.5c0.9,1.2,3,1.6,3.7,0c0.1-0.1,0.2-0.2,0.2-0.4c1.4,1.2,2.6,2.7,3.5,4.4
					C471.2,509.8,474.9,507.7,473.6,505.2z"/>
				<path class="st4" d="M720.6,505.2c-1.1-2-2.5-3.8-4.2-5.3l2.2-3.4c1.4-2.2-1.6-4-3.4-2.7c-1.4,1.2-2.7,2.4-3.7,3.9
					c-0.4-0.9-0.5-1.8-0.6-2.7c-0.2-2-2.8-3.1-4-1.1c-0.9,1.5-1.6,3-2.4,4.5c0,0,0,0,0-0.1l-5-7.5c-1.5-2.3-5.2-0.2-3.7,2.2
					c1.2,2,2.6,4.1,3.8,6c-1.5,1.2-2.9,2.3-4.3,3.6c-2,1.9,1.1,5,3,3.1c1.2-1.1,2.4-2,3.5-2.9c0.3,0.4,0.5,0.9,0.8,1.2
					c0.8,1.2,3,1.6,3.7,0c0.5-1.2,1.2-2.2,1.8-3.4c0.4,0.9,0.9,1.7,1.4,2.5c0.9,1.2,3,1.6,3.7,0c0.1-0.1,0.2-0.2,0.2-0.4
					c1.4,1.2,2.6,2.7,3.5,4.4C718.2,509.8,722,507.7,720.6,505.2z"/>
				<path class="st4" d="M662.5,576.5c1.1,2,2.5,3.8,4.2,5.3l-2.2,3.4c-1.4,2.2,1.6,4,3.4,2.7c1.4-1.2,2.7-2.4,3.7-3.9
					c0.4,0.9,0.5,1.8,0.6,2.7c0.2,2,2.8,3.1,4,1.1c0.9-1.5,1.6-3,2.4-4.5c0,0,0,0,0,0.1l5,7.4c1.6,2.3,5.2,0.2,3.7-2.2
					c-1.2-2-2.6-4.1-3.8-6c1.5-1.2,2.9-2.3,4.3-3.6c2-1.9-1.1-5-3.1-3.1c-1.2,1.1-2.3,2-3.5,2.9c-0.3-0.4-0.5-0.9-0.8-1.2
					c-0.8-1.2-3-1.6-3.7,0c-0.5,1.2-1.2,2.2-1.8,3.4c-0.4-0.9-0.9-1.7-1.4-2.5c-0.9-1.2-3-1.6-3.7,0c-0.1,0.1-0.2,0.2-0.2,0.4
					c-1.4-1.2-2.6-2.7-3.5-4.4C664.9,571.8,661.2,574,662.5,576.5z"/>
				<path class="st4" d="M480.5,576.5c1.1,2,2.5,3.8,4.2,5.3l-2.2,3.4c-1.4,2.2,1.6,4,3.4,2.7c1.4-1.2,2.7-2.4,3.7-3.9
					c0.4,0.9,0.5,1.8,0.6,2.7c0.2,2,2.8,3.1,4,1.1c0.9-1.5,1.6-3,2.4-4.5c0,0,0,0,0,0.1l5,7.4c1.6,2.3,5.2,0.2,3.7-2.2
					c-1.2-2-2.6-4.1-3.8-6c1.5-1.2,2.9-2.3,4.3-3.6c2-1.9-1.1-5-3.1-3.1c-1.2,1.1-2.3,2-3.5,2.9c-0.3-0.4-0.5-0.9-0.8-1.2
					c-0.8-1.2-3-1.6-3.7,0c-0.5,1.2-1.2,2.2-1.8,3.4c-0.4-0.9-0.9-1.7-1.4-2.5c-0.8-1.2-3-1.6-3.7,0c-0.1,0.1-0.2,0.2-0.2,0.4
					c-1.4-1.2-2.7-2.7-3.5-4.4C482.9,571.8,479.2,574,480.5,576.5z"/>
				<path class="st4" d="M660.2,411.6c1.1,2,2.5,3.8,4.2,5.3c-0.7,1.2-1.4,2.2-2.2,3.4c-1.4,2.2,1.6,4.1,3.4,2.7
					c1.4-1.2,2.7-2.4,3.7-3.9c0.4,0.9,0.5,1.8,0.6,2.7c0.2,2,2.8,3.1,4,1.1c0.9-1.5,1.6-3,2.4-4.5v0.1l5,7.5
					c1.5,2.3,5.2,0.2,3.7-2.2c-1.2-2-2.6-4.1-3.8-6c1.5-1.2,2.9-2.3,4.3-3.6c2-1.9-1.1-5-3-3c-1.2,1.1-2.4,1.9-3.5,2.9
					c-0.3-0.4-0.5-0.9-0.8-1.2c-0.8-1.2-3-1.6-3.7,0c-0.5,1.2-1.2,2.2-1.8,3.4c-0.4-0.9-0.9-1.7-1.4-2.5c-0.9-1.2-3-1.6-3.7,0
					c-0.1,0.1-0.2,0.2-0.2,0.4c-1.4-1.2-2.6-2.7-3.5-4.4C662.6,407,658.9,409.1,660.2,411.6z"/>
				<path class="st4" d="M476,411.6c1.1,2,2.5,3.8,4.2,5.3c-0.7,1.2-1.4,2.2-2.2,3.4c-1.4,2.2,1.6,4.1,3.4,2.7
					c1.4-1.2,2.7-2.4,3.7-3.9c0.4,0.9,0.5,1.8,0.6,2.7c0.2,2,2.8,3.1,4,1.1c0.9-1.5,1.6-3,2.4-4.5v0.1l5,7.5
					c1.5,2.3,5.2,0.2,3.7-2.2c-1.2-2-2.6-4.1-3.8-6c1.5-1.2,2.9-2.3,4.3-3.6c2-1.9-1.1-5-3.1-3c-1.2,1.1-2.4,1.9-3.5,2.9
					c-0.3-0.4-0.5-0.9-0.8-1.2c-0.8-1.2-3-1.6-3.7,0c-0.5,1.2-1.2,2.2-1.8,3.4c-0.4-0.9-0.9-1.7-1.4-2.5c-0.9-1.2-3-1.6-3.7,0
					c-0.1,0.1-0.2,0.2-0.2,0.4c-1.4-1.2-2.6-2.7-3.5-4.4C478.4,407,474.7,409.1,476,411.6z"/>
				<path class="st5" d="M539.6,535.6l1.6-23.9c0,0-31.9-33.5-31.3-40.2c0.6-6.7,8.3-46,9.9-48.5l125.1,7.3c0,0,2.6,42.2,1.6,46.7
					c-1,4.5-21.1,35.1-21.1,35.1l0.6,23.6L539.6,535.6z"/>
				<polygon class="st4" points="538.4,451.3 543.3,457.3 575.6,464.5 582.4,488 591,466.1 625.5,467.8 636.3,452.5 584.3,440.4 
									"/>
				<path class="st5" d="M620,457.4c-10-2.5-6.7-9.9-3.5-24.3c3.2-14.3,3.5-31.9,6.4-34.2s29,2.6,27.5,14.1s-15.9,41.8-18.5,44.4
					C629.2,459.9,623.1,458.2,620,457.4z"/>
				<path class="st5" d="M592.2,453.9c-8.7-2.7-8.9-3.5-6.7-19.5s5.1-37.4,5.1-43.4c0-6,33.2-3.2,32.2,8c-1,11.2-9.9,51.1-11.8,54.9
					S597.7,455.6,592.2,453.9z"/>
				<path class="st5" d="M552.9,444.3c0.8-5.8,8.1-52.3,8.1-59.1c0-6.7,30-6.7,30.5,4.3c0.4,11.1-7.4,58.5-9.6,61.8
					C579.8,454.6,551.5,453.7,552.9,444.3z"/>
				<path class="st5" d="M534.5,381.3c-1.1,2.7-11.2,52.5-10.9,57.6c0.4,5,30,8.3,32.2,4.8c2.2-3.5,5.1-51.7,5.1-58.4
					C561,378.5,536.1,377,534.5,381.3z"/>
				<path class="st4" d="M567.7,505.9l52.1,13.5l-33.9,1.6l39.9,6l-0.4-15.1c0,0,1.1-1.7,2.7-4.2L567.7,505.9z"/>
				<path class="st5" d="M539.6,535.6l1.6-23.9c0,0-31.9-33.5-31.3-40.2c0.6-6.7,8.3-46,9.9-48.5s49.1,3,56.7,3.6
					c7.6,0.6,9.3,22.4-0.6,24.6c-9.9,2.2-38.7,4.2-38.7,4.2"/>
				<path class="st0" d="M521.2,528.7h125.5c1.4,0,2.6,1.2,2.6,2.6v187c0,1.4-1.2,2.6-2.6,2.6H521.2c-1.4,0-2.6-1.2-2.6-2.6v-187
					C518.7,529.9,519.8,528.7,521.2,528.7z"/>
				<path class="st4" d="M646.7,531.3v187H521.2v-187H646.7 M646.7,526.2H521.2c-2.8,0-5.1,2.3-5.1,5.1l0,0v187
					c0,2.8,2.3,5.1,5.1,5.1l0,0h125.5c2.8,0,5.1-2.3,5.1-5.1l0,0v-187C651.9,528.5,649.6,526.2,646.7,526.2L646.7,526.2z"/>
				<rect x="539.2" y="531.3" class="st4" width="17.9" height="187"/>
				<rect x="575" y="531.3" class="st4" width="17.9" height="187"/>
				<rect x="610.9" y="531.3" class="st4" width="17.9" height="187"/>
			</g>
		</g>
	</g>
	<path class="st6" d="M859.9,656h-556l278.1-457.3L859.9,656z"/>
	<path class="st6" d="M581.9,801.3L303.9,344h556L581.9,801.3z"/>
</g>
</svg>
