<svg id="Слой_1" data-name="Слой 1" xmlns="http://www.w3.org/2000/svg" xmlns:xlink="http://www.w3.org/1999/xlink" viewBox="0 0 238.64 50"><defs><style>.cls-1,.cls-10,.cls-4,.cls-6,.cls-8{fill:none;}.cls-2{fill:#010101;}.cls-3{opacity:0.15;}.cls-4,.cls-6{stroke:#fff;}.cls-4,.cls-8,.cls-9{stroke-linecap:round;stroke-linejoin:round;}.cls-4{stroke-width:1.54px;}.cls-5,.cls-9{fill:#fff;}.cls-10,.cls-6{stroke-miterlimit:10;stroke-width:0.7px;}.cls-7{clip-path:url(#clip-path);}.cls-10,.cls-8,.cls-9{stroke:#010101;}.cls-8,.cls-9{stroke-width:0.42px;}</style><clipPath id="clip-path"><polygon class="cls-1" points="29.09 25 35.61 35.72 47.74 35.72 54.26 25 47.74 14.28 35.61 14.28 29.09 25"/></clipPath></defs><path class="cls-2" d="M-6.63-76.67V180H250V-76.67Z"/><g class="cls-3"><line class="cls-4" x1="-6.63" y1="3.21" x2="250.02" y2="3.21"/><line class="cls-4" x1="250.02" y1="44.6" x2="-6.63" y2="44.6"/><line class="cls-4" x1="-6.63" y1="23.9" x2="250.02" y2="23.9"/><path class="cls-5" d="M94.57,25.17a4.8,4.8,0,0,0-1-1.34c.18-.28.36-.56.55-.84.35-.56-.41-1-.85-.66a5,5,0,0,0-.93,1,2.35,2.35,0,0,1-.16-.67.55.55,0,0,0-1-.27c-.22.37-.4.75-.6,1.13h0L89.24,21.6c-.38-.57-1.3-.05-.93.55s.64,1,1,1.52a13.06,13.06,0,0,0-1.07.9c-.51.48.26,1.25.76.77a10.72,10.72,0,0,1,.9-.74l.2.31a.54.54,0,0,0,.93,0c.13-.29.3-.55.44-.83a4.76,4.76,0,0,0,.35.61.54.54,0,0,0,.93,0,.35.35,0,0,0,.05-.08,4.1,4.1,0,0,1,.88,1.1C94,26.33,94.91,25.78,94.57,25.17Z"/><path class="cls-5" d="M156.45,25.17a5,5,0,0,0-1-1.34l.54-.84c.36-.56-.4-1-.85-.66a5.31,5.31,0,0,0-.93,1,2.74,2.74,0,0,1-.16-.67.55.55,0,0,0-1-.27c-.22.37-.4.75-.6,1.13h0l-1.27-1.88c-.39-.57-1.31-.05-.94.55s.64,1,1,1.52a13.06,13.06,0,0,0-1.07.9c-.5.48.26,1.25.77.77.28-.27.59-.5.89-.74l.2.31a.54.54,0,0,0,.93,0c.14-.29.3-.55.45-.83a3.73,3.73,0,0,0,.34.61.55.55,0,0,0,.94,0,.35.35,0,0,1,0-.08,4.07,4.07,0,0,1,.87,1.1C155.85,26.33,156.78,25.78,156.45,25.17Z"/><path class="cls-5" d="M46.31,25.17a5,5,0,0,0-1.05-1.34L45.8,23c.36-.56-.4-1-.85-.66a5.31,5.31,0,0,0-.93,1,3.29,3.29,0,0,1-.16-.67.55.55,0,0,0-1-.27c-.22.37-.4.75-.6,1.13h0L41,21.6c-.39-.57-1.3-.05-.94.55l1,1.52a13.06,13.06,0,0,0-1.07.9c-.5.48.26,1.25.77.77.28-.27.59-.5.89-.74l.2.31a.54.54,0,0,0,.93,0c.14-.29.3-.55.45-.83a3.73,3.73,0,0,0,.34.61.55.55,0,0,0,.94,0,.35.35,0,0,1,0-.08,4.07,4.07,0,0,1,.87,1.1C45.71,26.33,46.64,25.78,46.31,25.17Z"/><path class="cls-5" d="M203.55,25.17a5,5,0,0,0-1.05-1.34L203,23c.36-.56-.4-1-.85-.66a5.67,5.67,0,0,0-.93,1,3.29,3.29,0,0,1-.16-.67.55.55,0,0,0-1-.27c-.22.37-.4.75-.6,1.13h0l-1.27-1.88c-.39-.57-1.3-.05-.94.55l1,1.52c-.37.28-.72.58-1.07.9-.5.48.27,1.25.77.77.28-.27.59-.5.89-.74l.2.31a.55.55,0,0,0,.94,0c.13-.29.29-.55.44-.83a4.76,4.76,0,0,0,.35.61.54.54,0,0,0,.93,0s0-.05.05-.08a4.31,4.31,0,0,1,.88,1.1C203,26.33,203.88,25.78,203.55,25.17Z"/><path class="cls-5" d="M141.88,43a5.11,5.11,0,0,0,1.05,1.34l-.54.84c-.36.56.4,1,.85.66a5,5,0,0,0,.92-1,3,3,0,0,1,.17.68.54.54,0,0,0,1,.27c.23-.37.41-.76.6-1.13a0,0,0,0,1,0,0l1.27,1.88c.39.57,1.3.05.93-.55s-.63-1-1-1.52a13.06,13.06,0,0,0,1.07-.9c.51-.48-.26-1.25-.76-.77-.28.27-.59.5-.89.74l-.2-.31a.55.55,0,0,0-.94,0c-.13.28-.29.55-.44.83a4.16,4.16,0,0,0-.35-.61.54.54,0,0,0-.93,0s0,0-.05.08a4.19,4.19,0,0,1-.88-1.11C142.48,41.85,141.55,42.4,141.88,43Z"/><path class="cls-5" d="M220.27,43a5.11,5.11,0,0,0,1,1.34l-.54.84c-.36.56.4,1,.85.66a5,5,0,0,0,.92-1,3,3,0,0,1,.17.68.54.54,0,0,0,1,.27c.22-.37.41-.76.6-1.13a0,0,0,0,1,0,0l1.27,1.88c.39.57,1.3.05.93-.55s-.64-1-1-1.52a13.06,13.06,0,0,0,1.07-.9c.51-.48-.26-1.25-.76-.77a10.72,10.72,0,0,1-.9.74l-.19-.31a.55.55,0,0,0-.94,0c-.13.28-.3.55-.44.83a4.16,4.16,0,0,0-.35-.61.54.54,0,0,0-.93,0,.35.35,0,0,0,0,.08,4.19,4.19,0,0,1-.88-1.11C220.87,41.85,219.94,42.4,220.27,43Z"/><path class="cls-5" d="M16.65,43a5.33,5.33,0,0,0,1.05,1.34l-.54.84c-.36.56.4,1,.85.66a5.38,5.38,0,0,0,.93-1,3.56,3.56,0,0,1,.16.68.55.55,0,0,0,1,.27c.22-.37.4-.76.6-1.13h0L22,46.58c.39.57,1.3.05.94-.55l-1-1.52c.36-.28.72-.58,1.06-.9.51-.48-.26-1.25-.76-.77-.28.27-.59.5-.89.74l-.2-.31a.55.55,0,0,0-.94,0c-.13.28-.29.55-.44.83a4.16,4.16,0,0,0-.35-.61.54.54,0,0,0-.93,0s0,0-.05.08a4.19,4.19,0,0,1-.88-1.11C17.25,41.85,16.32,42.4,16.65,43Z"/><path class="cls-5" d="M96.31,43a5.11,5.11,0,0,0,1,1.34l-.54.84c-.36.56.4,1,.84.66a4.78,4.78,0,0,0,.93-1,3,3,0,0,1,.17.68.54.54,0,0,0,1,.27c.22-.37.41-.76.6-1.13a0,0,0,0,1,0,0l1.27,1.88c.39.57,1.3.05.93-.55s-.64-1-1-1.52a13.06,13.06,0,0,0,1.07-.9c.51-.48-.26-1.25-.76-.77a10.72,10.72,0,0,1-.9.74l-.19-.31a.55.55,0,0,0-.94,0c-.13.28-.3.55-.44.83a4.16,4.16,0,0,0-.35-.61.54.54,0,0,0-.93,0,.35.35,0,0,0,0,.08,4.19,4.19,0,0,1-.88-1.11C96.91,41.85,96,42.4,96.31,43Z"/><path class="cls-5" d="M141.32,1.71a4.8,4.8,0,0,0,1.05,1.34l-.55.84c-.35.56.41,1,.85.66a4.73,4.73,0,0,0,.93-1,2.74,2.74,0,0,1,.17.67.54.54,0,0,0,1,.27c.22-.37.41-.75.6-1.13,0,0,0,0,0,0l1.27,1.87c.38.57,1.3,0,.93-.55s-.64-1-1-1.51a13.19,13.19,0,0,0,1.07-.91c.51-.48-.26-1.24-.76-.76a9,9,0,0,1-.9.73l-.2-.31a.54.54,0,0,0-.93,0c-.13.29-.3.56-.44.84a4.26,4.26,0,0,0-.35-.62c-.21-.3-.75-.4-.93,0a.35.35,0,0,0-.05.08,4.1,4.1,0,0,1-.88-1.1C141.92.56,141,1.1,141.32,1.71Z"/><path class="cls-5" d="M95.17,1.71a4.8,4.8,0,0,0,1,1.34l-.55.84c-.36.56.41,1,.85.66a4.73,4.73,0,0,0,.93-1,2.74,2.74,0,0,1,.16.67.55.55,0,0,0,1,.27c.22-.37.4-.75.6-1.13v0l1.27,1.87c.38.57,1.3,0,.93-.55s-.64-1-1-1.51a13.19,13.19,0,0,0,1.07-.91c.5-.48-.26-1.24-.76-.76-.29.27-.6.5-.9.73L99.68,2a.54.54,0,0,0-.93,0c-.13.29-.3.56-.44.84A4.26,4.26,0,0,0,98,2.19c-.21-.3-.75-.4-.93,0L97,2.27a4.07,4.07,0,0,1-.87-1.1C95.77.56,94.83,1.1,95.17,1.71Z"/><path class="cls-5" d="M231.1,1.71a5,5,0,0,0,1.06,1.34c-.19.28-.37.56-.55.84-.36.56.4,1,.85.66a4.73,4.73,0,0,0,.93-1,2.74,2.74,0,0,1,.16.67.55.55,0,0,0,1,.27c.22-.37.4-.75.6-1.13v0l1.27,1.87c.38.57,1.3,0,.93-.55s-.64-1-1-1.51a13.19,13.19,0,0,0,1.07-.91c.5-.48-.26-1.24-.77-.76a10.14,10.14,0,0,1-.89.73l-.2-.31a.54.54,0,0,0-.93,0c-.13.29-.3.56-.44.84a4.26,4.26,0,0,0-.35-.62.55.55,0,0,0-.94,0,.35.35,0,0,1-.05.08,4.07,4.07,0,0,1-.87-1.1C231.71.56,230.77,1.1,231.1,1.71Z"/><path class="cls-5" d="M5.81,1.71A4.83,4.83,0,0,0,6.87,3.05c-.19.28-.37.56-.55.84-.36.56.4,1,.85.66a5,5,0,0,0,.93-1,2.74,2.74,0,0,1,.16.67.55.55,0,0,0,1,.27c.22-.37.4-.75.6-1.13v0l1.27,1.87c.38.57,1.3,0,.93-.55s-.64-1-1-1.51a13.19,13.19,0,0,0,1.07-.91c.5-.48-.26-1.24-.77-.76a10.14,10.14,0,0,1-.89.73L10.33,2A.54.54,0,0,0,9.4,2c-.13.29-.3.56-.44.84a4.26,4.26,0,0,0-.35-.62.55.55,0,0,0-.94,0,.35.35,0,0,1,0,.08,4.07,4.07,0,0,1-.87-1.1C6.42.56,5.48,1.1,5.81,1.71Z"/></g><polygon class="cls-5" points="54.26 25 60.77 14.28 47.74 14.28 41.68 4.3 35.61 14.28 22.58 14.28 29.09 25 22.58 35.72 35.61 35.72 41.68 45.7 47.74 35.72 60.77 35.72 54.26 25"/><polygon class="cls-6" points="35.29 36.28 21.58 36.28 28.43 25 21.58 13.72 35.29 13.72 41.68 3.22 48.06 13.72 61.78 13.72 54.92 25 61.78 36.28 48.06 36.28 41.68 46.78 35.29 36.28"/><g class="cls-7"><line class="cls-8" x1="27.66" y1="19.34" x2="55.77" y2="19.34"/><line class="cls-8" x1="46.13" y1="30.69" x2="55.77" y2="30.69"/><line class="cls-8" x1="27.66" y1="30.69" x2="37.51" y2="30.69"/><line class="cls-8" x1="27.66" y1="25.01" x2="55.77" y2="25.01"/><path class="cls-2" d="M34.24,25.36A1.32,1.32,0,0,0,34,25l.15-.23c.1-.15-.11-.28-.23-.18a1.33,1.33,0,0,0-.26.27.58.58,0,0,1,0-.19.15.15,0,0,0-.28-.07c-.06.1-.11.21-.16.31h0l-.35-.51c-.11-.16-.36,0-.26.15s.18.28.26.42a3.36,3.36,0,0,0-.29.24.15.15,0,1,0,.21.21l.25-.2a.41.41,0,0,0,0,.09c.06.08.21.11.26,0a2.53,2.53,0,0,1,.12-.23.7.7,0,0,0,.09.17c.06.08.21.11.26,0a0,0,0,0,1,0,0,.89.89,0,0,1,.24.3C34.07,25.68,34.33,25.53,34.24,25.36Z"/><path class="cls-2" d="M51.21,25.36a1.53,1.53,0,0,0-.29-.37l.15-.23c.1-.15-.11-.28-.23-.18a1.33,1.33,0,0,0-.26.27.58.58,0,0,1,0-.19.15.15,0,0,0-.28-.07c-.06.1-.11.21-.16.31h0l-.34-.51c-.11-.16-.36,0-.26.15s.17.28.26.42a3.36,3.36,0,0,0-.29.24.15.15,0,1,0,.21.21l.24-.2.06.09a.15.15,0,0,0,.25,0l.13-.23a.7.7,0,0,0,.09.17c.06.08.21.11.26,0a0,0,0,0,1,0,0,.89.89,0,0,1,.24.3C51,25.68,51.3,25.53,51.21,25.36Z"/><path class="cls-2" d="M47.21,30.25a1.76,1.76,0,0,0,.29.37l-.15.23c-.1.15.11.28.23.18a1.33,1.33,0,0,0,.26-.27.58.58,0,0,1,0,.19.15.15,0,0,0,.28.07c.06-.1.11-.21.16-.31h0l.34.51c.11.16.36,0,.26-.15l-.26-.42a3.36,3.36,0,0,0,.29-.24.15.15,0,0,0-.21-.21l-.24.2-.06-.09c-.05-.08-.21-.11-.26,0a2.53,2.53,0,0,1-.12.23.7.7,0,0,0-.09-.17c-.06-.08-.21-.11-.26,0a0,0,0,0,1,0,0,.89.89,0,0,1-.24-.3C47.38,29.93,47.12,30.08,47.21,30.25Z"/><path class="cls-2" d="M34.71,30.25a1.76,1.76,0,0,0,.29.37l-.15.23c-.09.15.11.28.24.18a1.27,1.27,0,0,0,.25-.27,1.05,1.05,0,0,1,0,.19.14.14,0,0,0,.27.07l.17-.31h0l.35.51a.15.15,0,0,0,.25-.15c-.08-.14-.17-.28-.26-.42a3.36,3.36,0,0,0,.29-.24.15.15,0,0,0-.21-.21c-.07.07-.16.13-.24.2L36,30.32a.15.15,0,0,0-.25,0l-.12.23-.1-.17a.15.15,0,0,0-.26,0s0,0,0,0a1,1,0,0,1-.24-.3C34.88,29.93,34.62,30.08,34.71,30.25Z"/><path class="cls-2" d="M47.06,18.93a1.28,1.28,0,0,0,.29.36l-.15.23c-.1.16.11.28.23.18a1.23,1.23,0,0,0,.25-.26,1,1,0,0,1,0,.18.15.15,0,0,0,.28.08c.06-.1.11-.21.16-.31h0l.35.51c.11.16.36,0,.26-.15l-.27-.41.3-.25c.13-.13-.08-.34-.21-.21l-.25.2L48.3,19A.15.15,0,0,0,48,19l-.12.23a1,1,0,0,0-.1-.17.14.14,0,0,0-.25,0l0,0a1.44,1.44,0,0,1-.24-.3C47.22,18.61,47,18.76,47.06,18.93Z"/><path class="cls-2" d="M34.4,18.93a1.28,1.28,0,0,0,.29.36l-.15.23c-.1.16.11.28.23.18a1.28,1.28,0,0,0,.26-.26.53.53,0,0,1,0,.18.15.15,0,0,0,.28.08c.06-.1.11-.21.16-.31h0l.34.51c.11.16.36,0,.26-.15s-.18-.27-.26-.41a3.47,3.47,0,0,0,.29-.25c.14-.13-.07-.34-.21-.21a2.43,2.43,0,0,1-.25.2.35.35,0,0,0,0-.08.15.15,0,0,0-.26,0,2.53,2.53,0,0,1-.12.23.56.56,0,0,0-.09-.17.15.15,0,0,0-.26,0v0a1,1,0,0,1-.24-.3C34.57,18.61,34.31,18.76,34.4,18.93Z"/><path class="cls-9" d="M38.77,27.45l.11-1.65S36.69,23.5,36.73,23a30.33,30.33,0,0,1,.68-3.33l8.6.5s.17,2.89.1,3.2a24.31,24.31,0,0,1-1.44,2.41l0,1.63Z"/><polygon class="cls-2" points="38.69 21.66 39.02 22.06 41.24 22.57 41.72 24.18 42.31 22.68 44.67 22.79 45.41 21.74 41.84 20.91 38.69 21.66"/><path class="cls-9" d="M44.29,22.07c-.68-.17-.46-.68-.24-1.66a13.4,13.4,0,0,1,.44-2.35c.2-.15,2,.18,1.89,1a12.16,12.16,0,0,1-1.27,3C44.93,22.25,44.51,22.13,44.29,22.07Z"/><path class="cls-9" d="M42.39,21.83c-.6-.18-.62-.24-.46-1.33s.35-2.57.35-3,2.28-.22,2.21.55a28,28,0,0,1-.81,3.77C43.55,22.1,42.76,22,42.39,21.83Z"/><path class="cls-9" d="M39.69,21.17c.05-.39.55-3.59.55-4.05s2.06-.46,2.09.29a24.53,24.53,0,0,1-.65,4.25C41.53,21.88,39.59,21.82,39.69,21.17Z"/><path class="cls-9" d="M38.42,16.85c-.07.18-.77,3.6-.75,3.95s2.06.57,2.22.33a32,32,0,0,0,.35-4C40.24,16.66,38.54,16.56,38.42,16.85Z"/><path class="cls-2" d="M40.71,25.41l3.57.93L42,26.45l2.75.41,0-1,.18-.28Z"/><path class="cls-9" d="M38.77,27.45l.11-1.65S36.69,23.5,36.73,23a30.33,30.33,0,0,1,.68-3.33A24.79,24.79,0,0,1,41.3,20c.53,0,.64,1.54,0,1.69s-2.66.28-2.66.28"/><rect class="cls-5" x="37.34" y="26.98" width="8.97" height="13.2" rx="0.18"/><path class="cls-2" d="M46.13,27.15V40H37.51V27.15h8.62m0-.35H37.51a.35.35,0,0,0-.35.35V40a.35.35,0,0,0,.35.35h8.62a.35.35,0,0,0,.35-.35V27.15a.35.35,0,0,0-.35-.35Z"/><rect class="cls-2" x="38.74" y="27.15" width="1.23" height="12.85"/><rect class="cls-2" x="41.21" y="27.15" width="1.23" height="12.85"/><rect class="cls-2" x="43.67" y="27.15" width="1.23" height="12.85"/></g><path class="cls-10" d="M60.77,35.72H22.58L41.68,4.3Z"/><path class="cls-10" d="M41.68,45.7,22.58,14.28H60.77Z"/><path class="cls-5" d="M87.67,41q-3.77,0-7.48-.05t-7.49,0c.34-.6.69-1.22,1-1.88s.68-1.31,1-2,.63-1.25.9-1.84.51-1.12.71-1.6H90.71A5,5,0,0,0,92.89,33,3,3,0,0,0,94,31.79a3.06,3.06,0,0,0,.23-1.56,3.87,3.87,0,0,0-.49-1.54,3.72,3.72,0,0,0-1-1.18A2.6,2.6,0,0,0,91.27,27,32.58,32.58,0,0,0,86.84,27c-1.53.09-3.16.1-4.9.05.46-.74.87-1.39,1.24-1.95l1-1.56c.54,0,1.05,0,1.54,0l1.49-.09c.52,0,1.07,0,1.67,0s1.29.06,2.06.15a4.58,4.58,0,0,1,2.71,1.28,8.54,8.54,0,0,1,1.91,2.72A10.74,10.74,0,0,1,96.48,31a10.38,10.38,0,0,1-.25,3.55,16,16,0,0,1-.92,2.34A7.62,7.62,0,0,1,93.79,39a7.42,7.42,0,0,1-2.27,1.5,8,8,0,0,1-3.16.58ZM92.38,23.1c-.23.06-.32,0-.26-.17q1.62-3.21.84-4.53c-.53-.89-1.82-1.33-3.88-1.33H79.5a6.64,6.64,0,0,1-3.1-.66,5.37,5.37,0,0,1-2-1.84,7.81,7.81,0,0,1-1.09-2.8A18.74,18.74,0,0,1,73,8.22c0-.2.06-.29.17-.28a.46.46,0,0,1,.3.19,4,4,0,0,0,3.12,1.58q3.09,0,6.25,0l5.9,0a7.18,7.18,0,0,1,5.86,2.76,7.51,7.51,0,0,1,1.33,2.74,7.09,7.09,0,0,1,.12,3A7,7,0,0,1,94.86,21,6.61,6.61,0,0,1,92.38,23.1ZM76.12,32.68c.06-.82.15-1.79.26-2.9s.24-2.27.39-3.47.29-2.41.44-3.63.31-2.36.45-3.38c.32-.12.61-.22.88-.3l.86-.26,1-.3c.37-.11.84-.24,1.41-.38-.37,2.16-.71,4.36-1,6.58s-.63,4.45-.94,6.68c-.49.2-1,.4-1.63.6S76.92,32.37,76.12,32.68Z"/><path class="cls-5" d="M100.81,21.22q0-1.45,0-3.42A19.87,19.87,0,0,1,101.1,14,7.68,7.68,0,0,1,102.35,11,3.08,3.08,0,0,1,105,9.71h13.35a4,4,0,0,0,3.12-1.58.43.43,0,0,1,.32-.19c.13,0,.19.08.19.28a18.74,18.74,0,0,1-.32,3.55,7.81,7.81,0,0,1-1.09,2.8,5.37,5.37,0,0,1-2,1.84,6.64,6.64,0,0,1-3.1.66H107a8.73,8.73,0,0,0-1.14.09,2.85,2.85,0,0,0-1.26.51,3.5,3.5,0,0,0-1,1.37,6.72,6.72,0,0,0-.49,2.65v8.94a6.15,6.15,0,0,0,.11,1.18,1.92,1.92,0,0,0,.49,1,2.42,2.42,0,0,0,1.11.66,6.51,6.51,0,0,0,2,.24h16.47l-2.1,3.72c-.68,1.23-1.41,2.45-2.18,3.68l-12-.09a5,5,0,0,1-2.5-.64,6.75,6.75,0,0,1-1.93-1.62,8.3,8.3,0,0,1-1.24-2.16,6.5,6.5,0,0,1-.44-2.34Zm2.9,5.61c.4-.75.77-1.37,1.09-1.89s.62-1,.88-1.49l6.7,0c2.23,0,4.47-.06,6.69-.15-.23.55-.43,1-.6,1.33l-.47.92-.41.77c-.12.24-.27.51-.44.79h-3.41c-1.21,0-2.42,0-3.63,0L106.62,27C105.51,26.93,104.54,26.88,103.71,26.83Z"/><path class="cls-5" d="M144.39,19.55c0,.8,0,1.88,0,3.25s.06,2.79.09,4.26.06,2.86.09,4.17,0,2.31,0,3a6.52,6.52,0,0,1-.45,2.34A8,8,0,0,1,143,38.72,6.75,6.75,0,0,1,141,40.34a5,5,0,0,1-2.5.64l-13.6.09c.57-1.31,1.15-2.62,1.75-3.94l1.59-3.46h9.45a6.9,6.9,0,0,0,2-.24,2.61,2.61,0,0,0,1.16-.66,2,2,0,0,0,.53-1,4.85,4.85,0,0,0,.13-1.18c0-.08,0-.39.06-.92s.1-1.17.17-1.92.15-1.57.24-2.44.16-1.68.23-2.44.13-1.4.18-1.95.06-.85.06-.94a2.51,2.51,0,0,0-.49-1.66,3,3,0,0,0-1.16-.88,4.37,4.37,0,0,0-1.37-.34,11.23,11.23,0,0,0-1.17-.07h-.86a6.64,6.64,0,0,1-3.1-.66,5.37,5.37,0,0,1-2-1.84,7.81,7.81,0,0,1-1.09-2.8,18.74,18.74,0,0,1-.32-3.55c0-.2.05-.29.17-.28a.46.46,0,0,1,.3.19,4.07,4.07,0,0,0,3.16,1.58h5.61a3.08,3.08,0,0,1,2.48,1,6.23,6.23,0,0,1,1.24,2.48,15.05,15.05,0,0,1,.45,3.19C144.37,17.53,144.39,18.58,144.39,19.55Z"/><path class="cls-5" d="M171.73,21.22V41h-2.27V24.73c-.29.48-.54.89-.75,1.22s-.45.7-.71,1.13h-3.33c-1,0-2,0-2.95,0L159,27c-.9,0-1.82-.07-2.76-.12.45-.75.87-1.37,1.24-1.89s.71-1,1-1.49h3.15c.87,0,1.7,0,2.5,0l2.44,0,2.91-.06V21.69A6.72,6.72,0,0,0,169,19a3.5,3.5,0,0,0-1.05-1.37,2.85,2.85,0,0,0-1.26-.51,8.73,8.73,0,0,0-1.14-.09h-8.59a13.85,13.85,0,0,0-1.27,4.19,21.73,21.73,0,0,0-.13,4.26,30.87,30.87,0,0,0,.58,4.13l.82,3.81c.25,1.11.45,2.13.59,3a7.54,7.54,0,0,1,0,2.4,2.45,2.45,0,0,1-.88,1.56,3.56,3.56,0,0,1-2.2.56,4.73,4.73,0,0,1-1-.09c-.26-.06-.49-.12-.71-.19a6.36,6.36,0,0,0-.66-.19,3.4,3.4,0,0,0-.85-.09,4.13,4.13,0,0,0-3.17,1.63.4.4,0,0,1-.32.17c-.13,0-.19-.09-.19-.26a18.25,18.25,0,0,1,.28-3.38,7,7,0,0,1,1-2.57,4.7,4.7,0,0,1,1.82-1.66,6.78,6.78,0,0,1,2.84-.69,21.57,21.57,0,0,1-.71-3.95,26.61,26.61,0,0,1,0-4.28,23.11,23.11,0,0,1,.67-4,9.73,9.73,0,0,1,1.34-3.1A8.89,8.89,0,0,1,155.9,17a5.88,5.88,0,0,1-2.53-.94,5.62,5.62,0,0,1-1.66-1.89,8.5,8.5,0,0,1-.92-2.67,17.71,17.71,0,0,1-.28-3.27c0-.2.06-.29.19-.28a.43.43,0,0,1,.32.19,4,4,0,0,0,3.12,1.58h13.35a3.11,3.11,0,0,1,2.7,1.27A7.82,7.82,0,0,1,171.43,14a19.87,19.87,0,0,1,.32,3.76C171.73,19.11,171.73,20.25,171.73,21.22Z"/><path class="cls-5" d="M200,15c-.23,3.08-.43,6.14-.62,9.2s-.41,6.18-.66,9.41H204c-.58,1.31-1,2.55-1.44,3.72A38.86,38.86,0,0,1,201.11,41q-1.5,0-3.21,0c-.83,0-1.36-.23-1.6-.69a4.46,4.46,0,0,1-.28-2.22c0-.6.07-1.39.13-2.38s.13-2.09.21-3.31.19-2.53.3-3.89.24-2.76.39-4.15a9.08,9.08,0,0,1-1.2,1.84,2.23,2.23,0,0,1-1.75.85c-.95,0-1.77,0-2.49,0l-2,0L187.76,27l-2-.08c-.06,1.31-.12,2.66-.17,4s-.11,2.71-.15,4-.08,2.44-.09,3.51,0,1.94,0,2.63h-2c0-.92.07-2,.13-3.34s.11-2.71.17-4.19.11-3,.15-4.49.09-2.91.13-4.17.06-2.37.06-3.3V19.72a10,10,0,0,0-.17-1.66,1.58,1.58,0,0,0-.43-.88,1.26,1.26,0,0,0-.79-.32,9.26,9.26,0,0,0-1.3,0,6.18,6.18,0,0,1-3.1-.54,5,5,0,0,1-2-1.77,8,8,0,0,1-1.14-2.78,21.09,21.09,0,0,1-.45-3.55c0-.2.07-.29.19-.28a.47.47,0,0,1,.33.19,4.21,4.21,0,0,0,3.2,1.5l1.37,0,.43,0h-.21c.42,0,.94,0,1.54-.05a3.19,3.19,0,0,1,2.52.92,6,6,0,0,1,1.33,2.44,15.07,15.07,0,0,1,.53,3.19q.1,1.71.15,3.12c0,.43,0,1.19,0,2.29s-.09,2.37-.15,3.83c.54-.71,1-1.34,1.33-1.88h4.47q.83,0,1.62,0l1.9-.06a2.7,2.7,0,0,0,1.44-.53,2,2,0,0,0,.75-1.52c.08-.77.16-1.53.23-2.27s.14-1.47.19-2.18h-1a1.78,1.78,0,0,0-.53,0l-.67,0a6.21,6.21,0,0,1-3.1-.54,5,5,0,0,1-2-1.77,8.23,8.23,0,0,1-1.13-2.78,17.74,17.74,0,0,1-.41-3.55c0-.2,0-.29.15-.28a.58.58,0,0,1,.36.19,4.19,4.19,0,0,0,3.17,1.5l1.37,0,.42,0h-.21c.43,0,.94,0,1.54-.05a4.21,4.21,0,0,1,2.16.45,3.75,3.75,0,0,1,1.37,1.31,5,5,0,0,1,.66,1.79A8.47,8.47,0,0,1,200,15Z"/><path class="cls-5" d="M216.81,19.55c0,.37,0,1.08,0,2.12s0,2.25,0,3.64,0,2.86,0,4.42,0,3.09,0,4.56,0,2.8.06,4,0,2.11,0,2.74H214c0-.09,0-.65.07-1.69s.11-2.33.19-3.85.17-3.18.24-4.94.15-3.42.23-4.94.15-2.82.19-3.88S215,20.11,215,20a4.1,4.1,0,0,0-.28-1.71,1.79,1.79,0,0,0-.77-.87,2.62,2.62,0,0,0-1.15-.33c-.45,0-.94,0-1.48,0a6.61,6.61,0,0,1-3.1-.66,5.37,5.37,0,0,1-2-1.84,7.82,7.82,0,0,1-1.11-2.8,17.16,17.16,0,0,1-.35-3.55c0-.2.07-.29.2-.28a.47.47,0,0,1,.32.19,4.06,4.06,0,0,0,3.16,1.58h4.19a3.16,3.16,0,0,1,2.51,1,6.13,6.13,0,0,1,1.26,2.48,14.46,14.46,0,0,1,.43,3.19C216.79,17.53,216.81,18.58,216.81,19.55Z"/></svg>