<svg id="Слой_1" data-name="Слой 1" xmlns="http://www.w3.org/2000/svg" xmlns:xlink="http://www.w3.org/1999/xlink" viewBox="0 0 1455.53 1000"><defs><style>.cls-1,.cls-10,.cls-3,.cls-5,.cls-7{fill:none;}.cls-2{opacity:0.15;}.cls-3,.cls-5{stroke:#fff;}.cls-3,.cls-7,.cls-9{stroke-linecap:round;stroke-linejoin:round;}.cls-3{stroke-width:8.99px;}.cls-4,.cls-9{fill:#fff;}.cls-10,.cls-5{stroke-miterlimit:10;stroke-width:11.57px;}.cls-6{clip-path:url(#clip-path);}.cls-10,.cls-7,.cls-9{stroke:#010101;}.cls-7,.cls-9{stroke-width:6.94px;}.cls-8{fill:#010101;}</style><clipPath id="clip-path"><polygon class="cls-1" points="520.92 521.03 628.02 697.22 827.51 697.22 934.62 521.03 827.51 344.85 628.02 344.85 520.92 521.03"/></clipPath></defs><g class="cls-2"><line class="cls-3" x1="-24.05" y1="379.72" x2="1473.46" y2="379.72"/><line class="cls-3" x1="1473.46" y1="621.18" x2="-24.05" y2="621.18"/><line class="cls-3" x1="-24.05" y1="500.45" x2="1473.46" y2="500.45"/><path class="cls-4" d="M566.46,507.82a29.71,29.71,0,0,0-6.13-7.82l3.17-4.9c2.1-3.24-2.35-5.89-5-3.82a29.54,29.54,0,0,0-5.42,5.66,17,17,0,0,1-1-3.91c-.31-3-4.15-4.46-5.88-1.59-1.29,2.14-2.35,4.4-3.5,6.61,0,0,0-.07,0-.1L535.36,487c-2.26-3.33-7.59-.32-5.45,3.18,1.82,3,3.73,5.91,5.6,8.85a78.22,78.22,0,0,0-6.24,5.29c-2.94,2.81,1.52,7.26,4.46,4.46,1.64-1.57,3.45-2.92,5.22-4.31.39.61.76,1.23,1.16,1.84,1.18,1.8,4.39,2.28,5.44,0,.78-1.68,1.74-3.25,2.58-4.88a24,24,0,0,0,2,3.6c1.23,1.77,4.35,2.31,5.45,0,.09-.18.21-.3.3-.48A24.11,24.11,0,0,1,561,511C563,514.57,568.41,511.39,566.46,507.82Z"/><path class="cls-4" d="M927.47,507.82a29.51,29.51,0,0,0-6.13-7.82q1.59-2.44,3.17-4.9c2.1-3.24-2.34-5.89-5-3.82a29.54,29.54,0,0,0-5.42,5.66,17,17,0,0,1-.95-3.91c-.3-3-4.15-4.46-5.87-1.59-1.29,2.14-2.35,4.4-3.5,6.61,0,0,0-.07,0-.1L896.37,487c-2.25-3.33-7.59-.32-5.45,3.18,1.83,3,3.73,5.91,5.6,8.85a80,80,0,0,0-6.24,5.29c-2.94,2.81,1.52,7.26,4.46,4.46,1.65-1.57,3.45-2.92,5.22-4.31.39.61.76,1.23,1.16,1.84,1.18,1.8,4.39,2.28,5.45,0,.77-1.68,1.73-3.25,2.58-4.88a23.17,23.17,0,0,0,2,3.6c1.22,1.77,4.35,2.31,5.44,0,.09-.18.21-.3.3-.48A23.91,23.91,0,0,1,922,511C924,514.57,929.42,511.39,927.47,507.82Z"/><path class="cls-4" d="M284.85,507.82a29.51,29.51,0,0,0-6.13-7.82q1.59-2.44,3.17-4.9c2.1-3.24-2.35-5.89-4.95-3.82a29.54,29.54,0,0,0-5.42,5.66,17,17,0,0,1-.95-3.91c-.3-3-4.15-4.46-5.88-1.59-1.28,2.14-2.35,4.4-3.49,6.61,0,0,0-.07,0-.1L253.75,487c-2.25-3.33-7.59-.32-5.45,3.18,1.82,3,3.73,5.91,5.6,8.85a80,80,0,0,0-6.24,5.29c-2.94,2.81,1.52,7.26,4.46,4.46,1.65-1.57,3.45-2.92,5.22-4.31.39.61.76,1.23,1.16,1.84,1.18,1.8,4.39,2.28,5.45,0,.77-1.68,1.73-3.25,2.57-4.88a24.1,24.1,0,0,0,2,3.6c1.22,1.77,4.35,2.31,5.44,0,.09-.18.21-.3.3-.48a24.11,24.11,0,0,1,5.11,6.44C281.35,514.57,286.8,511.39,284.85,507.82Z"/><path class="cls-4" d="M1202.3,507.82a29.71,29.71,0,0,0-6.13-7.82l3.17-4.9c2.09-3.24-2.35-5.89-4.95-3.82a29.24,29.24,0,0,0-5.42,5.66,16.46,16.46,0,0,1-1-3.91c-.31-3-4.16-4.46-5.88-1.59-1.29,2.14-2.35,4.4-3.5,6.61,0,0,0-.07,0-.1L1171.19,487c-2.25-3.33-7.58-.32-5.44,3.18,1.82,3,3.73,5.91,5.6,8.85a78.22,78.22,0,0,0-6.24,5.29c-2.95,2.81,1.52,7.26,4.46,4.46,1.64-1.57,3.45-2.92,5.21-4.31.4.61.77,1.23,1.17,1.84,1.17,1.8,4.39,2.28,5.44,0,.78-1.68,1.74-3.25,2.58-4.88a24,24,0,0,0,2,3.6c1.23,1.77,4.35,2.31,5.45,0,.08-.18.21-.3.29-.48a23.72,23.72,0,0,1,5.11,6.44C1198.79,514.57,1204.24,511.39,1202.3,507.82Z"/><path class="cls-4" d="M842.48,611.92a29.55,29.55,0,0,0,6.13,7.82l-3.17,4.9c-2.09,3.24,2.35,5.9,4.95,3.83a29,29,0,0,0,5.42-5.67,16.57,16.57,0,0,1,1,3.91c.31,3,4.16,4.47,5.88,1.6,1.29-2.15,2.35-4.4,3.5-6.61,0,0,0,.06,0,.09l7.42,10.94c2.25,3.32,7.58.32,5.44-3.19-1.82-3-3.73-5.9-5.6-8.85a76.06,76.06,0,0,0,6.24-5.28c3-2.81-1.52-7.27-4.46-4.46-1.64,1.56-3.45,2.91-5.21,4.31-.4-.61-.77-1.23-1.17-1.84-1.17-1.81-4.39-2.29-5.44,0-.78,1.67-1.74,3.24-2.58,4.87a24.43,24.43,0,0,0-2-3.59c-1.23-1.77-4.35-2.32-5.45,0-.08.17-.21.3-.29.47a23.67,23.67,0,0,1-5.11-6.43C846,605.17,840.54,608.35,842.48,611.92Z"/><path class="cls-4" d="M1299.85,611.92a29.76,29.76,0,0,0,6.13,7.82q-1.57,2.46-3.17,4.9c-2.09,3.24,2.35,5.9,5,3.83a29.31,29.31,0,0,0,5.42-5.67,16.57,16.57,0,0,1,.94,3.91c.31,3,4.16,4.47,5.88,1.6,1.29-2.15,2.35-4.4,3.5-6.61,0,0,0,.06,0,.09l7.41,10.94c2.25,3.32,7.59.32,5.44-3.19-1.82-3-3.72-5.9-5.59-8.85a79.56,79.56,0,0,0,6.24-5.28c2.94-2.81-1.53-7.27-4.46-4.46-1.65,1.56-3.45,2.91-5.22,4.31-.4-.61-.77-1.23-1.16-1.84-1.18-1.81-4.39-2.29-5.45,0-.77,1.67-1.73,3.24-2.58,4.87a24.43,24.43,0,0,0-2-3.59c-1.23-1.77-4.35-2.32-5.45,0-.08.17-.2.3-.29.47a23.86,23.86,0,0,1-5.11-6.43C1303.36,605.17,1297.91,608.35,1299.85,611.92Z"/><path class="cls-4" d="M111.81,611.92a29.76,29.76,0,0,0,6.13,7.82q-1.57,2.46-3.17,4.9c-2.09,3.24,2.35,5.9,5,3.83a29.31,29.31,0,0,0,5.42-5.67,16.57,16.57,0,0,1,.94,3.91c.31,3,4.16,4.47,5.88,1.6,1.29-2.15,2.35-4.4,3.5-6.61,0,0,0,.06,0,.09l7.41,10.94c2.25,3.32,7.59.32,5.44-3.19-1.82-3-3.72-5.9-5.59-8.85a79.56,79.56,0,0,0,6.24-5.28c2.94-2.81-1.53-7.27-4.46-4.46-1.65,1.56-3.45,2.91-5.22,4.31-.4-.61-.77-1.23-1.16-1.84-1.18-1.81-4.39-2.29-5.45,0-.77,1.67-1.73,3.24-2.58,4.87a24.43,24.43,0,0,0-2-3.59c-1.23-1.77-4.35-2.32-5.45,0-.08.17-.2.3-.29.47a23.86,23.86,0,0,1-5.11-6.43C115.32,605.17,109.87,608.35,111.81,611.92Z"/><path class="cls-4" d="M576.59,611.92a29.55,29.55,0,0,0,6.13,7.82l-3.17,4.9c-2.1,3.24,2.35,5.9,5,3.83a29.31,29.31,0,0,0,5.42-5.67,17.08,17.08,0,0,1,1,3.91c.31,3,4.15,4.47,5.88,1.6,1.29-2.15,2.35-4.4,3.5-6.61,0,0,0,.06,0,.09l7.41,10.94c2.26,3.32,7.59.32,5.45-3.19-1.82-3-3.73-5.9-5.6-8.85a76.06,76.06,0,0,0,6.24-5.28c2.94-2.81-1.52-7.27-4.46-4.46-1.64,1.56-3.45,2.91-5.22,4.31-.39-.61-.76-1.23-1.16-1.84-1.18-1.81-4.39-2.29-5.44,0-.78,1.67-1.74,3.24-2.58,4.87a24.43,24.43,0,0,0-2-3.59c-1.23-1.77-4.35-2.32-5.45,0-.08.17-.21.3-.3.47a23.83,23.83,0,0,1-5.1-6.43C580.09,605.17,574.64,608.35,576.59,611.92Z"/><path class="cls-4" d="M839.2,371a29.55,29.55,0,0,0,6.13,7.82l-3.17,4.9c-2.1,3.24,2.35,5.9,5,3.83a29,29,0,0,0,5.42-5.67,17.17,17.17,0,0,1,1,3.92c.31,3,4.15,4.46,5.88,1.59,1.29-2.15,2.35-4.4,3.5-6.61,0,0,0,.06,0,.09l7.41,10.94c2.26,3.32,7.59.32,5.45-3.19-1.82-3-3.73-5.9-5.6-8.85a76.06,76.06,0,0,0,6.24-5.28c2.94-2.81-1.52-7.27-4.46-4.46-1.64,1.57-3.45,2.91-5.22,4.31-.39-.61-.76-1.23-1.16-1.84-1.18-1.8-4.39-2.29-5.44,0-.78,1.68-1.74,3.24-2.58,4.87a24.43,24.43,0,0,0-2-3.59c-1.23-1.77-4.35-2.32-5.45,0-.08.17-.21.3-.3.47a23.83,23.83,0,0,1-5.1-6.43C842.7,364.22,837.26,367.4,839.2,371Z"/><path class="cls-4" d="M569.92,371a29.55,29.55,0,0,0,6.13,7.82l-3.17,4.9c-2.1,3.24,2.35,5.9,5,3.83a29,29,0,0,0,5.42-5.67,17.17,17.17,0,0,1,1,3.92c.31,3,4.16,4.46,5.88,1.59,1.29-2.15,2.35-4.4,3.5-6.61,0,0,0,.06,0,.09L601,391.78c2.26,3.32,7.59.32,5.45-3.19-1.82-3-3.73-5.9-5.6-8.85a76.06,76.06,0,0,0,6.24-5.28c2.95-2.81-1.52-7.27-4.46-4.46-1.64,1.57-3.45,2.91-5.21,4.31-.4-.61-.77-1.23-1.17-1.84-1.18-1.8-4.39-2.29-5.44,0-.78,1.68-1.74,3.24-2.58,4.87a24.43,24.43,0,0,0-2-3.59c-1.23-1.77-4.35-2.32-5.45,0-.08.17-.21.3-.29.47a23.67,23.67,0,0,1-5.11-6.43C573.42,364.22,568,367.4,569.92,371Z"/><path class="cls-4" d="M1363.08,371a29.55,29.55,0,0,0,6.13,7.82l-3.17,4.9c-2.1,3.24,2.35,5.9,5,3.83a29.31,29.31,0,0,0,5.42-5.67,17.17,17.17,0,0,1,.95,3.92c.31,3,4.15,4.46,5.88,1.59,1.29-2.15,2.35-4.4,3.5-6.61,0,0,0,.06,0,.09l7.41,10.94c2.26,3.32,7.59.32,5.45-3.19-1.82-3-3.73-5.9-5.6-8.85a77.77,77.77,0,0,0,6.24-5.28c2.94-2.81-1.52-7.27-4.46-4.46-1.64,1.57-3.45,2.91-5.22,4.31-.39-.61-.76-1.23-1.16-1.84-1.18-1.8-4.39-2.29-5.44,0-.78,1.68-1.74,3.24-2.58,4.87a24.43,24.43,0,0,0-2-3.59c-1.23-1.77-4.35-2.32-5.45,0-.09.17-.21.3-.3.47a24.06,24.06,0,0,1-5.11-6.43C1366.58,364.22,1361.13,367.4,1363.08,371Z"/><path class="cls-4" d="M48.59,371a29.55,29.55,0,0,0,6.13,7.82l-3.17,4.9c-2.1,3.24,2.35,5.9,5,3.83a29.31,29.31,0,0,0,5.42-5.67,17.17,17.17,0,0,1,.95,3.92c.31,3,4.15,4.46,5.88,1.59,1.29-2.15,2.35-4.4,3.5-6.61,0,0,0,.06,0,.09l7.41,10.94c2.26,3.32,7.59.32,5.45-3.19-1.82-3-3.73-5.9-5.6-8.85a76.06,76.06,0,0,0,6.24-5.28c2.94-2.81-1.52-7.27-4.46-4.46-1.64,1.57-3.45,2.91-5.22,4.31-.39-.61-.76-1.23-1.16-1.84-1.18-1.8-4.39-2.29-5.44,0-.78,1.68-1.74,3.24-2.58,4.87a24.43,24.43,0,0,0-2-3.59c-1.23-1.77-4.35-2.32-5.45,0-.08.17-.21.3-.3.47A24.06,24.06,0,0,1,54,367.79C52.09,364.22,46.64,367.4,48.59,371Z"/><line class="cls-3" x1="-24.05" y1="741.91" x2="1473.46" y2="741.91"/><line class="cls-3" x1="-24.05" y1="17.54" x2="1473.46" y2="17.54"/><line class="cls-3" x1="1473.46" y1="258.99" x2="-24.05" y2="258.99"/><line class="cls-3" x1="-24.05" y1="138.27" x2="1473.46" y2="138.27"/><path class="cls-4" d="M566.46,145.64a29.55,29.55,0,0,0-6.13-7.82l3.17-4.9c2.1-3.24-2.35-5.9-5-3.83a29.31,29.31,0,0,0-5.42,5.67,17,17,0,0,1-1-3.92c-.31-3-4.15-4.46-5.88-1.59-1.29,2.15-2.35,4.4-3.5,6.61,0,0,0-.06,0-.09l-7.41-10.94c-2.26-3.32-7.59-.32-5.45,3.19,1.82,3,3.73,5.9,5.6,8.85a76.06,76.06,0,0,0-6.24,5.28c-2.94,2.81,1.52,7.27,4.46,4.46,1.64-1.57,3.45-2.91,5.22-4.31.39.61.76,1.23,1.16,1.84,1.18,1.81,4.39,2.29,5.44,0,.78-1.67,1.74-3.24,2.58-4.87a24.43,24.43,0,0,0,2,3.59c1.23,1.77,4.35,2.32,5.45,0,.09-.17.21-.3.3-.47a24.06,24.06,0,0,1,5.11,6.43C563,152.39,568.41,149.21,566.46,145.64Z"/><path class="cls-4" d="M927.47,145.64a29.35,29.35,0,0,0-6.13-7.82l3.17-4.9c2.1-3.24-2.34-5.9-5-3.83a29.31,29.31,0,0,0-5.42,5.67,17,17,0,0,1-.95-3.92c-.3-3-4.15-4.46-5.87-1.59-1.29,2.15-2.35,4.4-3.5,6.61,0,0,0-.06,0-.09l-7.41-10.94c-2.25-3.32-7.59-.32-5.45,3.19,1.83,3,3.73,5.9,5.6,8.85a77.77,77.77,0,0,0-6.24,5.28c-2.94,2.81,1.52,7.27,4.46,4.46,1.65-1.57,3.45-2.91,5.22-4.31.39.61.76,1.23,1.16,1.84,1.18,1.81,4.39,2.29,5.45,0,.77-1.67,1.73-3.24,2.58-4.87a23.55,23.55,0,0,0,2,3.59c1.22,1.77,4.35,2.32,5.44,0,.09-.17.21-.3.3-.47a23.86,23.86,0,0,1,5.11,6.43C924,152.39,929.42,149.21,927.47,145.64Z"/><path class="cls-4" d="M284.85,145.64a29.35,29.35,0,0,0-6.13-7.82l3.17-4.9c2.1-3.24-2.35-5.9-4.95-3.83a29.31,29.31,0,0,0-5.42,5.67,17,17,0,0,1-.95-3.92c-.3-3-4.15-4.46-5.88-1.59-1.28,2.15-2.35,4.4-3.49,6.61,0,0,0-.06,0-.09l-7.41-10.94c-2.25-3.32-7.59-.32-5.45,3.19,1.82,3,3.73,5.9,5.6,8.85a77.77,77.77,0,0,0-6.24,5.28c-2.94,2.81,1.52,7.27,4.46,4.46,1.65-1.57,3.45-2.91,5.22-4.31.39.61.76,1.23,1.16,1.84,1.18,1.81,4.39,2.29,5.45,0,.77-1.67,1.73-3.24,2.57-4.87a24.51,24.51,0,0,0,2,3.59c1.22,1.77,4.35,2.32,5.44,0,.09-.17.21-.3.3-.47a24.06,24.06,0,0,1,5.11,6.43C281.35,152.39,286.8,149.21,284.85,145.64Z"/><path class="cls-4" d="M1202.3,145.64a29.55,29.55,0,0,0-6.13-7.82q1.57-2.46,3.17-4.9c2.09-3.24-2.35-5.9-4.95-3.83a29,29,0,0,0-5.42,5.67,16.54,16.54,0,0,1-1-3.92c-.31-3-4.16-4.46-5.88-1.59-1.29,2.15-2.35,4.4-3.5,6.61,0,0,0-.06,0-.09l-7.42-10.94c-2.25-3.32-7.58-.32-5.44,3.19,1.82,3,3.73,5.9,5.6,8.85a76.06,76.06,0,0,0-6.24,5.28c-2.95,2.81,1.52,7.27,4.46,4.46,1.64-1.57,3.45-2.91,5.21-4.31.4.61.77,1.23,1.17,1.84,1.17,1.81,4.39,2.29,5.44,0,.78-1.67,1.74-3.24,2.58-4.87a24.43,24.43,0,0,0,2,3.59c1.23,1.77,4.35,2.32,5.45,0,.08-.17.21-.3.29-.47a23.67,23.67,0,0,1,5.11,6.43C1198.79,152.39,1204.24,149.21,1202.3,145.64Z"/><path class="cls-4" d="M842.48,249.74a29.71,29.71,0,0,0,6.13,7.82l-3.17,4.9c-2.09,3.24,2.35,5.89,4.95,3.82a29.24,29.24,0,0,0,5.42-5.66,16.46,16.46,0,0,1,1,3.91c.31,3,4.16,4.46,5.88,1.59,1.29-2.14,2.35-4.4,3.5-6.61,0,0,0,.07,0,.1l7.42,10.93c2.25,3.33,7.58.32,5.44-3.18-1.82-3-3.73-5.91-5.6-8.85a78.22,78.22,0,0,0,6.24-5.29c3-2.81-1.52-7.26-4.46-4.46-1.64,1.57-3.45,2.92-5.21,4.31-.4-.61-.77-1.23-1.17-1.84-1.17-1.8-4.39-2.28-5.44,0-.78,1.68-1.74,3.25-2.58,4.88a24,24,0,0,0-2-3.6c-1.23-1.77-4.35-2.31-5.45,0-.08.18-.21.3-.29.48a23.72,23.72,0,0,1-5.11-6.44C846,243,840.54,246.17,842.48,249.74Z"/><path class="cls-4" d="M1299.85,249.74a29.92,29.92,0,0,0,6.13,7.82l-3.17,4.9c-2.09,3.24,2.35,5.89,5,3.82a29.54,29.54,0,0,0,5.42-5.66,16.45,16.45,0,0,1,.94,3.91c.31,3,4.16,4.46,5.88,1.59,1.29-2.14,2.35-4.4,3.5-6.61,0,0,0,.07,0,.1l7.41,10.93c2.25,3.33,7.59.32,5.44-3.18-1.82-3-3.72-5.91-5.59-8.85,2.15-1.67,4.24-3.39,6.24-5.29,2.94-2.81-1.53-7.26-4.46-4.46-1.65,1.57-3.45,2.92-5.22,4.31-.4-.61-.77-1.23-1.16-1.84-1.18-1.8-4.39-2.28-5.45,0-.77,1.68-1.73,3.25-2.58,4.88a24,24,0,0,0-2-3.6c-1.23-1.77-4.35-2.31-5.45,0-.08.18-.2.3-.29.48a23.91,23.91,0,0,1-5.11-6.44C1303.36,243,1297.91,246.17,1299.85,249.74Z"/><path class="cls-4" d="M111.81,249.74a29.92,29.92,0,0,0,6.13,7.82l-3.17,4.9c-2.09,3.24,2.35,5.89,5,3.82a29.54,29.54,0,0,0,5.42-5.66,16.45,16.45,0,0,1,.94,3.91c.31,3,4.16,4.46,5.88,1.59,1.29-2.14,2.35-4.4,3.5-6.61,0,0,0,.07,0,.1l7.41,10.93c2.25,3.33,7.59.32,5.44-3.18-1.82-3-3.72-5.91-5.59-8.85,2.15-1.67,4.24-3.39,6.24-5.29,2.94-2.81-1.53-7.26-4.46-4.46-1.65,1.57-3.45,2.92-5.22,4.31-.4-.61-.77-1.23-1.16-1.84-1.18-1.8-4.39-2.28-5.45,0-.77,1.68-1.73,3.25-2.58,4.88a24,24,0,0,0-2-3.6c-1.23-1.77-4.35-2.31-5.45,0-.08.18-.2.3-.29.48a23.91,23.91,0,0,1-5.11-6.44C115.32,243,109.87,246.17,111.81,249.74Z"/><path class="cls-4" d="M576.59,249.74a29.71,29.71,0,0,0,6.13,7.82l-3.17,4.9c-2.1,3.24,2.35,5.89,5,3.82a29.54,29.54,0,0,0,5.42-5.66,17,17,0,0,1,1,3.91c.31,3,4.15,4.46,5.88,1.59,1.29-2.14,2.35-4.4,3.5-6.61,0,0,0,.07,0,.1l7.41,10.93c2.26,3.33,7.59.32,5.45-3.18-1.82-3-3.73-5.91-5.6-8.85a78.22,78.22,0,0,0,6.24-5.29c2.94-2.81-1.52-7.26-4.46-4.46-1.64,1.57-3.45,2.92-5.22,4.31-.39-.61-.76-1.23-1.16-1.84-1.18-1.8-4.39-2.28-5.44,0-.78,1.68-1.74,3.25-2.58,4.88a24,24,0,0,0-2-3.6c-1.23-1.77-4.35-2.31-5.45,0-.08.18-.21.3-.3.48a23.88,23.88,0,0,1-5.1-6.44C580.09,243,574.64,246.17,576.59,249.74Z"/><path class="cls-4" d="M839.2,8.79a29.71,29.71,0,0,0,6.13,7.82l-3.17,4.9c-2.1,3.24,2.35,5.89,5,3.82a29.24,29.24,0,0,0,5.42-5.66,17,17,0,0,1,1,3.91c.31,3,4.15,4.46,5.88,1.59,1.29-2.14,2.35-4.4,3.5-6.61,0,0,0,.07,0,.1l7.41,10.93c2.26,3.33,7.59.32,5.45-3.18-1.82-3-3.73-5.91-5.6-8.85a76.19,76.19,0,0,0,6.24-5.29c2.94-2.81-1.52-7.26-4.46-4.46-1.64,1.57-3.45,2.92-5.22,4.31-.39-.61-.76-1.23-1.16-1.84-1.18-1.8-4.39-2.28-5.44,0-.78,1.68-1.74,3.25-2.58,4.88a24,24,0,0,0-2-3.6c-1.23-1.77-4.35-2.31-5.45,0-.08.18-.21.3-.3.48a23.88,23.88,0,0,1-5.1-6.44C842.7,2,837.26,5.22,839.2,8.79Z"/><path class="cls-4" d="M569.92,8.79a29.71,29.71,0,0,0,6.13,7.82l-3.17,4.9c-2.1,3.24,2.35,5.89,5,3.82a29.24,29.24,0,0,0,5.42-5.66,17,17,0,0,1,1,3.91c.31,3,4.16,4.46,5.88,1.59,1.29-2.14,2.35-4.4,3.5-6.61,0,0,0,.07,0,.1L601,29.59c2.26,3.33,7.59.32,5.45-3.18-1.82-3-3.73-5.91-5.6-8.85a76.19,76.19,0,0,0,6.24-5.29c2.95-2.81-1.52-7.26-4.46-4.46-1.64,1.57-3.45,2.92-5.21,4.31-.4-.61-.77-1.23-1.17-1.84-1.18-1.8-4.39-2.28-5.44,0-.78,1.68-1.74,3.25-2.58,4.88a24,24,0,0,0-2-3.6c-1.23-1.77-4.35-2.31-5.45,0-.08.18-.21.3-.29.48a23.72,23.72,0,0,1-5.11-6.44C573.42,2,568,5.22,569.92,8.79Z"/><path class="cls-4" d="M1363.08,8.79a29.71,29.71,0,0,0,6.13,7.82l-3.17,4.9c-2.1,3.24,2.35,5.89,5,3.82a29.54,29.54,0,0,0,5.42-5.66,17,17,0,0,1,.95,3.91c.31,3,4.15,4.46,5.88,1.59,1.29-2.14,2.35-4.4,3.5-6.61,0,0,0,.07,0,.1l7.41,10.93c2.26,3.33,7.59.32,5.45-3.18-1.82-3-3.73-5.91-5.6-8.85a77.91,77.91,0,0,0,6.24-5.29c2.94-2.81-1.52-7.26-4.46-4.46-1.64,1.57-3.45,2.92-5.22,4.31-.39-.61-.76-1.23-1.16-1.84-1.18-1.8-4.39-2.28-5.44,0-.78,1.68-1.74,3.25-2.58,4.88a24,24,0,0,0-2-3.6c-1.23-1.77-4.35-2.31-5.45,0-.09.18-.21.3-.3.48a24.11,24.11,0,0,1-5.11-6.44C1366.58,2,1361.13,5.22,1363.08,8.79Z"/><path class="cls-4" d="M48.59,8.79a29.71,29.71,0,0,0,6.13,7.82l-3.17,4.9c-2.1,3.24,2.35,5.89,5,3.82a29.54,29.54,0,0,0,5.42-5.66,17,17,0,0,1,.95,3.91c.31,3,4.15,4.46,5.88,1.59,1.29-2.14,2.35-4.4,3.5-6.61,0,0,0,.07,0,.1l7.41,10.93c2.26,3.33,7.59.32,5.45-3.18-1.82-3-3.73-5.91-5.6-8.85a76.19,76.19,0,0,0,6.24-5.29C88.72,9.46,84.26,5,81.32,7.81c-1.64,1.57-3.45,2.92-5.22,4.31-.39-.61-.76-1.23-1.16-1.84-1.18-1.8-4.39-2.28-5.44,0-.78,1.68-1.74,3.25-2.58,4.88a24,24,0,0,0-2-3.6c-1.23-1.77-4.35-2.31-5.45,0-.08.18-.21.3-.3.48A24.11,24.11,0,0,1,54,5.6C52.09,2,46.64,5.22,48.59,8.79Z"/><line class="cls-3" x1="1473.46" y1="983.37" x2="-24.05" y2="983.37"/><line class="cls-3" x1="-24.05" y1="862.64" x2="1473.46" y2="862.64"/><path class="cls-4" d="M566.46,870a29.55,29.55,0,0,0-6.13-7.82l3.17-4.9c2.1-3.24-2.35-5.9-5-3.82a29.26,29.26,0,0,0-5.42,5.66,17.08,17.08,0,0,1-1-3.91c-.31-3-4.15-4.47-5.88-1.6-1.29,2.15-2.35,4.41-3.5,6.61,0,0,0-.06,0-.09l-7.41-10.94c-2.26-3.32-7.59-.31-5.45,3.19,1.82,3,3.73,5.9,5.6,8.85a74.26,74.26,0,0,0-6.24,5.29c-2.94,2.8,1.52,7.26,4.46,4.46,1.64-1.57,3.45-2.92,5.22-4.31.39.6.76,1.23,1.16,1.83,1.18,1.81,4.39,2.29,5.44,0,.78-1.67,1.74-3.24,2.58-4.87a25.05,25.05,0,0,0,2,3.6c1.23,1.76,4.35,2.31,5.45,0,.09-.18.21-.31.3-.48a24.06,24.06,0,0,1,5.11,6.43C563,876.76,568.41,873.58,566.46,870Z"/><path class="cls-4" d="M927.47,870a29.35,29.35,0,0,0-6.13-7.82l3.17-4.9c2.1-3.24-2.34-5.9-5-3.82a29.26,29.26,0,0,0-5.42,5.66,17.08,17.08,0,0,1-.95-3.91c-.3-3-4.15-4.47-5.87-1.6-1.29,2.15-2.35,4.41-3.5,6.61,0,0,0-.06,0-.09l-7.41-10.94c-2.25-3.32-7.59-.31-5.45,3.19,1.83,3,3.73,5.9,5.6,8.85a75.89,75.89,0,0,0-6.24,5.29c-2.94,2.8,1.52,7.26,4.46,4.46,1.65-1.57,3.45-2.92,5.22-4.31.39.6.76,1.23,1.16,1.83,1.18,1.81,4.39,2.29,5.45,0,.77-1.67,1.73-3.24,2.58-4.87a24.13,24.13,0,0,0,2,3.6c1.22,1.76,4.35,2.31,5.44,0,.09-.18.21-.31.3-.48a23.86,23.86,0,0,1,5.11,6.43C924,876.76,929.42,873.58,927.47,870Z"/><path class="cls-4" d="M284.85,870a29.35,29.35,0,0,0-6.13-7.82l3.17-4.9c2.1-3.24-2.35-5.9-4.95-3.82a29.26,29.26,0,0,0-5.42,5.66,17.08,17.08,0,0,1-.95-3.91c-.3-3-4.15-4.47-5.88-1.6-1.28,2.15-2.35,4.41-3.49,6.61,0,0,0-.06,0-.09l-7.41-10.94c-2.25-3.32-7.59-.31-5.45,3.19,1.82,3,3.73,5.9,5.6,8.85a75.89,75.89,0,0,0-6.24,5.29c-2.94,2.8,1.52,7.26,4.46,4.46,1.65-1.57,3.45-2.92,5.22-4.31.39.6.76,1.23,1.16,1.83,1.18,1.81,4.39,2.29,5.45,0,.77-1.67,1.73-3.24,2.57-4.87a25.13,25.13,0,0,0,2,3.6c1.22,1.76,4.35,2.31,5.44,0,.09-.18.21-.31.3-.48a24.06,24.06,0,0,1,5.11,6.43C281.35,876.76,286.8,873.58,284.85,870Z"/><path class="cls-4" d="M1202.3,870a29.55,29.55,0,0,0-6.13-7.82q1.57-2.46,3.17-4.9c2.09-3.24-2.35-5.9-4.95-3.82a29,29,0,0,0-5.42,5.66,16.57,16.57,0,0,1-1-3.91c-.31-3-4.16-4.47-5.88-1.6-1.29,2.15-2.35,4.41-3.5,6.61,0,0,0-.06,0-.09l-7.42-10.94c-2.25-3.32-7.58-.31-5.44,3.19,1.82,3,3.73,5.9,5.6,8.85a74.26,74.26,0,0,0-6.24,5.29c-2.95,2.8,1.52,7.26,4.46,4.46,1.64-1.57,3.45-2.92,5.21-4.31.4.6.77,1.23,1.17,1.83,1.17,1.81,4.39,2.29,5.44,0,.78-1.67,1.74-3.24,2.58-4.87a25.05,25.05,0,0,0,2,3.6c1.23,1.76,4.35,2.31,5.45,0,.08-.18.21-.31.29-.48a23.67,23.67,0,0,1,5.11,6.43C1198.79,876.76,1204.24,873.58,1202.3,870Z"/><path class="cls-4" d="M842.48,974.11a29.71,29.71,0,0,0,6.13,7.82l-3.17,4.9c-2.09,3.24,2.35,5.89,4.95,3.82a29.24,29.24,0,0,0,5.42-5.66,16.46,16.46,0,0,1,1,3.91c.31,3,4.16,4.46,5.88,1.59,1.29-2.14,2.35-4.4,3.5-6.61,0,0,0,.07,0,.1l7.42,10.93c2.25,3.33,7.58.32,5.44-3.18-1.82-3-3.73-5.9-5.6-8.85a76.19,76.19,0,0,0,6.24-5.29c3-2.81-1.52-7.26-4.46-4.46-1.64,1.57-3.45,2.92-5.21,4.31-.4-.61-.77-1.23-1.17-1.83-1.17-1.81-4.39-2.29-5.44,0-.78,1.67-1.74,3.24-2.58,4.87a24,24,0,0,0-2-3.6c-1.23-1.77-4.35-2.31-5.45,0-.08.18-.21.3-.29.48a23.72,23.72,0,0,1-5.11-6.44C846,967.36,840.54,970.54,842.48,974.11Z"/><path class="cls-4" d="M1299.85,974.11a29.92,29.92,0,0,0,6.13,7.82l-3.17,4.9c-2.09,3.24,2.35,5.89,5,3.82a29.54,29.54,0,0,0,5.42-5.66,16.45,16.45,0,0,1,.94,3.91c.31,3,4.16,4.46,5.88,1.59,1.29-2.14,2.35-4.4,3.5-6.61,0,0,0,.07,0,.1l7.41,10.93c2.25,3.33,7.59.32,5.44-3.18-1.82-3-3.72-5.9-5.59-8.85a79.7,79.7,0,0,0,6.24-5.29c2.94-2.81-1.53-7.26-4.46-4.46-1.65,1.57-3.45,2.92-5.22,4.31-.4-.61-.77-1.23-1.16-1.83-1.18-1.81-4.39-2.29-5.45,0-.77,1.67-1.73,3.24-2.58,4.87a24,24,0,0,0-2-3.6c-1.23-1.77-4.35-2.31-5.45,0-.08.18-.2.3-.29.48a23.91,23.91,0,0,1-5.11-6.44C1303.36,967.36,1297.91,970.54,1299.85,974.11Z"/><path class="cls-4" d="M111.81,974.11a29.92,29.92,0,0,0,6.13,7.82l-3.17,4.9c-2.09,3.24,2.35,5.89,5,3.82a29.54,29.54,0,0,0,5.42-5.66,16.45,16.45,0,0,1,.94,3.91c.31,3,4.16,4.46,5.88,1.59,1.29-2.14,2.35-4.4,3.5-6.61,0,0,0,.07,0,.1l7.41,10.93c2.25,3.33,7.59.32,5.44-3.18-1.82-3-3.72-5.9-5.59-8.85a79.7,79.7,0,0,0,6.24-5.29c2.94-2.81-1.53-7.26-4.46-4.46-1.65,1.57-3.45,2.92-5.22,4.31-.4-.61-.77-1.23-1.16-1.83-1.18-1.81-4.39-2.29-5.45,0-.77,1.67-1.73,3.24-2.58,4.87a24,24,0,0,0-2-3.6c-1.23-1.77-4.35-2.31-5.45,0-.08.18-.2.3-.29.48a23.91,23.91,0,0,1-5.11-6.44C115.32,967.36,109.87,970.54,111.81,974.11Z"/><path class="cls-4" d="M576.59,974.11a29.71,29.71,0,0,0,6.13,7.82l-3.17,4.9c-2.1,3.24,2.35,5.89,5,3.82a29.54,29.54,0,0,0,5.42-5.66,17,17,0,0,1,1,3.91c.31,3,4.15,4.46,5.88,1.59,1.29-2.14,2.35-4.4,3.5-6.61,0,0,0,.07,0,.1l7.41,10.93c2.26,3.33,7.59.32,5.45-3.18-1.82-3-3.73-5.9-5.6-8.85a76.19,76.19,0,0,0,6.24-5.29c2.94-2.81-1.52-7.26-4.46-4.46-1.64,1.57-3.45,2.92-5.22,4.31-.39-.61-.76-1.23-1.16-1.83-1.18-1.81-4.39-2.29-5.44,0-.78,1.67-1.74,3.24-2.58,4.87a24,24,0,0,0-2-3.6c-1.23-1.77-4.35-2.31-5.45,0-.08.18-.21.3-.3.48a23.88,23.88,0,0,1-5.1-6.44C580.09,967.36,574.64,970.54,576.59,974.11Z"/><path class="cls-4" d="M839.2,733.16a29.55,29.55,0,0,0,6.13,7.82l-3.17,4.9c-2.1,3.24,2.35,5.9,5,3.82a29.24,29.24,0,0,0,5.42-5.66,17,17,0,0,1,1,3.91c.31,3,4.15,4.46,5.88,1.59,1.29-2.14,2.35-4.4,3.5-6.61,0,0,0,.07,0,.1L870.3,754c2.26,3.33,7.59.32,5.45-3.18-1.82-3-3.73-5.9-5.6-8.85a76.19,76.19,0,0,0,6.24-5.29c2.94-2.81-1.52-7.26-4.46-4.46-1.64,1.57-3.45,2.92-5.22,4.31-.39-.61-.76-1.23-1.16-1.83-1.18-1.81-4.39-2.29-5.44,0-.78,1.67-1.74,3.24-2.58,4.87a24,24,0,0,0-2-3.6c-1.23-1.77-4.35-2.31-5.45,0-.08.18-.21.31-.3.48a23.88,23.88,0,0,1-5.1-6.44C842.7,726.41,837.26,729.59,839.2,733.16Z"/><path class="cls-4" d="M569.92,733.16a29.55,29.55,0,0,0,6.13,7.82l-3.17,4.9c-2.1,3.24,2.35,5.9,5,3.82a29.24,29.24,0,0,0,5.42-5.66,17,17,0,0,1,1,3.91c.31,3,4.16,4.46,5.88,1.59,1.29-2.14,2.35-4.4,3.5-6.61,0,0,0,.07,0,.1L601,754c2.26,3.33,7.59.32,5.45-3.18-1.82-3-3.73-5.9-5.6-8.85a76.19,76.19,0,0,0,6.24-5.29c2.95-2.81-1.52-7.26-4.46-4.46-1.64,1.57-3.45,2.92-5.21,4.31-.4-.61-.77-1.23-1.17-1.83-1.18-1.81-4.39-2.29-5.44,0-.78,1.67-1.74,3.24-2.58,4.87a24,24,0,0,0-2-3.6c-1.23-1.77-4.35-2.31-5.45,0-.08.18-.21.31-.29.48a23.72,23.72,0,0,1-5.11-6.44C573.42,726.41,568,729.59,569.92,733.16Z"/><path class="cls-4" d="M1363.08,733.16a29.55,29.55,0,0,0,6.13,7.82l-3.17,4.9c-2.1,3.24,2.35,5.9,5,3.82a29.54,29.54,0,0,0,5.42-5.66,17,17,0,0,1,.95,3.91c.31,3,4.15,4.46,5.88,1.59,1.29-2.14,2.35-4.4,3.5-6.61,0,0,0,.07,0,.1l7.41,10.93c2.26,3.33,7.59.32,5.45-3.18-1.82-3-3.73-5.9-5.6-8.85a77.91,77.91,0,0,0,6.24-5.29c2.94-2.81-1.52-7.26-4.46-4.46-1.64,1.57-3.45,2.92-5.22,4.31-.39-.61-.76-1.23-1.16-1.83-1.18-1.81-4.39-2.29-5.44,0-.78,1.67-1.74,3.24-2.58,4.87a24,24,0,0,0-2-3.6c-1.23-1.77-4.35-2.31-5.45,0-.09.18-.21.31-.3.48a24.11,24.11,0,0,1-5.11-6.44C1366.58,726.41,1361.13,729.59,1363.08,733.16Z"/><path class="cls-4" d="M48.59,733.16A29.55,29.55,0,0,0,54.72,741l-3.17,4.9c-2.1,3.24,2.35,5.9,5,3.82A29.54,29.54,0,0,0,61.92,744a17,17,0,0,1,.95,3.91c.31,3,4.15,4.46,5.88,1.59,1.29-2.14,2.35-4.4,3.5-6.61,0,0,0,.07,0,.1L79.69,754c2.26,3.33,7.59.32,5.45-3.18-1.82-3-3.73-5.9-5.6-8.85a76.19,76.19,0,0,0,6.24-5.29c2.94-2.81-1.52-7.26-4.46-4.46-1.64,1.57-3.45,2.92-5.22,4.31-.39-.61-.76-1.23-1.16-1.83-1.18-1.81-4.39-2.29-5.44,0-.78,1.67-1.74,3.24-2.58,4.87a24,24,0,0,0-2-3.6c-1.23-1.77-4.35-2.31-5.45,0-.08.18-.21.31-.3.48A24.11,24.11,0,0,1,54,730C52.09,726.41,46.64,729.59,48.59,733.16Z"/></g><polygon class="cls-4" points="934.62 521.03 1041.73 344.85 827.51 344.85 727.77 180.78 628.02 344.85 413.81 344.85 520.92 521.03 413.81 697.22 628.02 697.22 727.77 861.28 827.51 697.22 1041.73 697.22 934.62 521.03"/><polygon class="cls-5" points="622.82 706.47 397.35 706.47 510.08 521.03 397.35 335.59 622.82 335.59 727.77 162.96 832.72 335.59 1058.19 335.59 945.45 521.03 1058.19 706.47 832.72 706.47 727.77 879.1 622.82 706.47"/><g class="cls-6"><line class="cls-7" x1="497.41" y1="427.94" x2="959.38" y2="427.94"/><line class="cls-7" x1="800.96" y1="614.51" x2="959.38" y2="614.51"/><line class="cls-7" x1="497.41" y1="614.51" x2="659.32" y2="614.51"/><line class="cls-7" x1="497.41" y1="521.23" x2="959.38" y2="521.23"/><path class="cls-8" d="M605.5,526.92a23.15,23.15,0,0,0-4.74-6l2.45-3.79c1.62-2.5-1.82-4.55-3.83-3a22.8,22.8,0,0,0-4.19,4.38,13,13,0,0,1-.73-3c-.24-2.3-3.21-3.45-4.54-1.23-1,1.66-1.82,3.4-2.7,5.11,0,0,0,0,0-.07l-5.73-8.45c-1.74-2.57-5.86-.25-4.21,2.46,1.41,2.3,2.88,4.56,4.33,6.84a58.09,58.09,0,0,0-4.82,4.08c-2.28,2.17,1.17,5.61,3.44,3.45,1.28-1.21,2.67-2.26,4-3.33l.89,1.42c.91,1.39,3.39,1.76,4.21,0,.6-1.3,1.34-2.51,2-3.77a18.89,18.89,0,0,0,1.57,2.78c1,1.37,3.36,1.79,4.21,0,.07-.14.16-.23.23-.37a18.68,18.68,0,0,1,3.95,5C602.79,532.14,607,529.68,605.5,526.92Z"/><path class="cls-8" d="M884.44,526.92a22.9,22.9,0,0,0-4.73-6l2.45-3.79c1.61-2.5-1.82-4.55-3.83-3a22.5,22.5,0,0,0-4.19,4.38,13,13,0,0,1-.73-3c-.24-2.3-3.21-3.45-4.54-1.23-1,1.66-1.82,3.4-2.71,5.11,0,0,0,0,0-.07l-5.73-8.45c-1.74-2.57-5.87-.25-4.21,2.46,1.41,2.3,2.88,4.56,4.33,6.84a56.5,56.5,0,0,0-4.82,4.08c-2.28,2.17,1.17,5.61,3.44,3.45,1.27-1.21,2.67-2.26,4-3.33.31.47.59.95.9,1.42.91,1.39,3.39,1.76,4.21,0,.6-1.3,1.34-2.51,2-3.77a18.89,18.89,0,0,0,1.57,2.78c.95,1.37,3.36,1.79,4.21,0,.06-.14.16-.23.23-.37a18.45,18.45,0,0,1,3.94,5C881.74,532.14,886,529.68,884.44,526.92Z"/><path class="cls-8" d="M818.77,607.36a22.94,22.94,0,0,0,4.74,6l-2.45,3.79c-1.62,2.5,1.81,4.55,3.83,2.95a22.46,22.46,0,0,0,4.18-4.38,13.71,13.71,0,0,1,.74,3c.23,2.3,3.2,3.45,4.54,1.23,1-1.66,1.81-3.4,2.7-5.11,0,0,0,.05,0,.08l5.72,8.44c1.75,2.57,5.87.25,4.21-2.46-1.41-2.3-2.88-4.56-4.32-6.84a59.77,59.77,0,0,0,4.82-4.08c2.27-2.17-1.18-5.61-3.45-3.45a50.83,50.83,0,0,1-4,3.33c-.3-.47-.59-.95-.9-1.42-.91-1.39-3.39-1.76-4.21,0-.59,1.3-1.34,2.51-2,3.77a18,18,0,0,0-1.57-2.78c-1-1.37-3.36-1.79-4.21,0-.06.14-.16.24-.22.37a18.48,18.48,0,0,1-3.95-5C821.48,602.14,817.27,604.6,818.77,607.36Z"/><path class="cls-8" d="M613.32,607.36a22.94,22.94,0,0,0,4.74,6l-2.45,3.79c-1.62,2.5,1.81,4.55,3.83,2.95a22.17,22.17,0,0,0,4.18-4.38,13.17,13.17,0,0,1,.74,3c.23,2.3,3.21,3.45,4.54,1.23,1-1.66,1.81-3.4,2.7-5.11,0,0,0,.05,0,.08l5.72,8.44c1.75,2.57,5.87.25,4.21-2.46-1.4-2.3-2.88-4.56-4.32-6.84a59.77,59.77,0,0,0,4.82-4.08c2.27-2.17-1.18-5.61-3.45-3.45a50.83,50.83,0,0,1-4,3.33c-.3-.47-.59-.95-.9-1.42-.91-1.39-3.39-1.76-4.2,0-.6,1.3-1.34,2.51-2,3.77a18,18,0,0,0-1.57-2.78c-.94-1.37-3.36-1.79-4.21,0-.06.14-.16.24-.22.37a18.48,18.48,0,0,1-4-5C616,602.14,611.82,604.6,613.32,607.36Z"/><path class="cls-8" d="M816.23,421.18a23.36,23.36,0,0,0,4.74,6.05q-1.22,1.89-2.45,3.78c-1.62,2.5,1.82,4.56,3.83,2.95a22.75,22.75,0,0,0,4.19-4.37,13,13,0,0,1,.73,3c.24,2.3,3.21,3.45,4.54,1.23,1-1.66,1.82-3.4,2.7-5.11a.41.41,0,0,1,0,.08l5.73,8.45c1.74,2.57,5.86.24,4.21-2.46-1.41-2.3-2.88-4.56-4.33-6.84a60.22,60.22,0,0,0,4.82-4.09c2.28-2.17-1.17-5.61-3.44-3.44-1.27,1.21-2.67,2.25-4,3.33-.31-.47-.6-.95-.9-1.42-.91-1.4-3.39-1.77-4.21,0-.6,1.29-1.34,2.5-2,3.76a19.41,19.41,0,0,0-1.57-2.78c-1-1.36-3.36-1.78-4.21,0-.07.14-.16.24-.23.37a18.37,18.37,0,0,1-3.95-5C818.94,416,814.73,418.42,816.23,421.18Z"/><path class="cls-8" d="M608.17,421.18a22.94,22.94,0,0,0,4.74,6.05q-1.23,1.89-2.45,3.78c-1.62,2.5,1.81,4.56,3.82,2.95a22.45,22.45,0,0,0,4.19-4.37,13,13,0,0,1,.73,3c.24,2.3,3.21,3.45,4.54,1.23,1-1.66,1.82-3.4,2.71-5.11,0,0,0,.06,0,.08l5.72,8.45c1.74,2.57,5.87.24,4.21-2.46-1.41-2.3-2.88-4.56-4.32-6.84a62,62,0,0,0,4.82-4.09c2.27-2.17-1.18-5.61-3.45-3.44-1.27,1.21-2.66,2.25-4,3.33-.31-.47-.59-.95-.9-1.42-.91-1.4-3.39-1.77-4.21,0-.6,1.29-1.34,2.5-2,3.76a19.41,19.41,0,0,0-1.57-2.78c-1-1.36-3.36-1.78-4.21,0-.06.14-.16.24-.23.37a18.34,18.34,0,0,1-3.94-5C610.88,416,606.67,418.42,608.17,421.18Z"/><path class="cls-9" d="M680,561.22l1.8-27s-36-37.84-35.32-45.41,9.37-51.9,11.17-54.78l141.31,8.23s2.86,47.63,1.77,52.68-23.78,39.64-23.78,39.64l.72,26.67Z"/><polygon class="cls-8" points="678.68 466.07 684.18 472.75 720.66 481.02 728.39 507.48 738.14 482.8 777.04 484.73 789.17 467.37 730.54 453.79 678.68 466.07"/><path class="cls-9" d="M770.8,472.92c-11.27-2.84-7.57-11.17-4-27.39s4-36,7.2-38.56,32.8,2.88,31,15.86S787,470,784.13,472.92,774.34,473.82,770.8,472.92Z"/><path class="cls-9" d="M739.44,469c-9.79-3-10.09-4-7.57-22s5.77-42.17,5.77-49,37.48-3.61,36.4,9-11.17,57.66-13.33,62S745.63,470.87,739.44,469Z"/><path class="cls-9" d="M695.06,458.15c.93-6.46,9.06-59.11,9.06-66.68s33.86-7.57,34.41,4.86-8.38,66.14-10.76,69.75S693.52,468.83,695.06,458.15Z"/><path class="cls-9" d="M674.26,387c-1.22,3.09-12.67,59.27-12.31,65s33.88,9.37,36.41,5.41,5.76-58.39,5.76-66S676.13,382.23,674.26,387Z"/><path class="cls-8" d="M711.84,527.72,770.61,543l-38.28,1.81,45.06,6.84-.46-17.09s1.22-1.86,3.07-4.72Z"/><path class="cls-9" d="M680,561.22l1.8-27s-36-37.84-35.32-45.41,9.37-51.9,11.17-54.78,55.36,3.41,64,4.13,10.48,25.29-.7,27.81-43.71,4.69-43.71,4.69"/><rect class="cls-4" x="656.43" y="553.54" width="147.42" height="217.02" rx="2.89"/><path class="cls-8" d="M801,556.43V767.66H659.32V556.43H801m0-5.79H659.32a5.78,5.78,0,0,0-5.78,5.79V767.66a5.78,5.78,0,0,0,5.78,5.79H801a5.78,5.78,0,0,0,5.78-5.79V556.43a5.78,5.78,0,0,0-5.78-5.79Z"/><rect class="cls-8" x="679.56" y="556.43" width="20.23" height="211.24"/><rect class="cls-8" x="720.02" y="556.43" width="20.23" height="211.24"/><rect class="cls-8" x="760.49" y="556.43" width="20.23" height="211.24"/></g><path class="cls-10" d="M1041.73,697.22H413.81l314-516.44Z"/><path class="cls-10" d="M727.77,861.29l-314-516.44h627.92Z"/></svg>